<?xml version="1.0" encoding="utf-8"?>
<!-- Generator: Adobe Illustrator 23.0.1, SVG Export Plug-In . SVG Version: 6.00 Build 0)  -->
<svg version="1.1" id="Layer_1" xmlns="http://www.w3.org/2000/svg" xmlns:xlink="http://www.w3.org/1999/xlink" x="0px" y="0px"
	 viewBox="0 0 2000 1400" style="enable-background:new 0 0 2000 1400;" xml:space="preserve">
<style type="text/css">
	.Drop_x0020_Shadow{fill:none;}
	.Outer_x0020_Glow_x0020_5_x0020_pt{fill:none;}
	.Jive_GS{fill:#A6D0E4;}
	.st0{clip-path:url(#SVGID_2_);}
	.st1{fill-rule:evenodd;clip-rule:evenodd;}
</style>
<g>
	<g>
		<g>
			<defs>
				<rect id="SVGID_1_" x="-194.7" y="-494" width="2388.2" height="2388.2"/>
			</defs>
			<clipPath id="SVGID_2_">
				<use xlink:href="#SVGID_1_"  style="overflow:visible;"/>
			</clipPath>
			<g class="st0">
				<g>
					<g>
						<path class="st1" d="M447.1,935.9c-3.3-7.3-6.5-14.7-9.8-22.5L-1.2,867.3h1580.6c-7.3,24.5-18.4,46.1-25.7,69l59.2,49.8
							c-18,35.5-39.2,69.4-63.3,100.9l-40.8-13.1l-35.9-9.4c-19.2,22.9-39.6,44.5-62.1,64.1l32.7,68.6c-31.4,25.7-65.3,49-101.3,69
							l-58.4-51c-26.9,13.5-54.7,25.3-84.1,35.1l0.8,75.5c-39.6,11.4-80.4,20-122.5,24.5l-31.8-69.8c-15.1,1.2-30.2,1.6-45.3,1.6
							s-30.2-0.8-45.3-1.6l-31.8,69.8c-42.1-4.5-82.9-12.7-122.5-24.1l0.8-76.4c-29-9.8-57.2-21.2-84.1-35.1l-59.2,51.9
							c-35.9-20-69.8-42.9-101.3-68.6l33.5-69.8c-22.9-20.4-44.1-42.5-63.7-65.7L450,1087c-24.1-31.4-45.3-64.9-63.3-100
							L447.1,935.9z M716.2,943.2c69.8,73.1,170.3,119.2,282.1,119.2c81.7,0,156.8-24.5,218.9-66.1L716.2,943.2z"/>
						<path class="st1" d="M1552,463.9c3.3,7.3,6.5,14.7,9.8,22.5l438.5,46.5h-1581c7.3-24.5,18.4-46.1,25.7-69l-59.2-49.8
							c18-35.5,39.2-69.4,63.3-100.9l40.8,13.1l35.9,9.4c19.2-22.9,39.6-44.5,62.1-64.1L555.3,203c31.4-25.7,65.3-49,101.3-69
							l58.4,51c26.9-13.5,54.7-25.3,84.1-35.1l-0.8-75.5c39.6-11.4,80.4-20,122.5-24.5l31.8,69.8c15.1-1.2,30.2-1.6,45.3-1.6
							s30.2,0.8,45.3,1.6l31.8-69.8c42.1,4.5,82.9,12.7,122.5,24.1l-0.8,76.4c29,9.8,57.2,21.2,84.1,35.1l59.2-51.9
							c35.9,20,69.8,42.9,101.3,68.6l-33.5,69.8c22.9,20.4,44.1,42.5,63.7,65.7l77.2-24.5c24.1,31.4,45.3,64.9,63.3,100L1552,463.9z
							 M1282.9,456.5c-69.8-73.1-170.3-119.2-282.1-119.2c-81.7,0-156.8,24.5-218.9,66.1L1282.9,456.5z"/>
						<g>
							<path class="st1" d="M537,664.8h-60.4v65.3h-29.4v-158h29.4V637H537v-64.9h29.4v158H537V664.8z M585.5,572.1h29.4v158h-29.4
								V572.1z M634.1,572.1h33.5l68.6,107.8V572.1h29.4v158h-31.4L663.9,619v111.1h-29.4v-158H634.1z M783.6,572.1h43.3
								c13.5,0,25.3,2,35.5,6.1s19.2,9.8,26.1,16.7c7.3,6.9,12.7,15.5,16.3,24.9c3.7,9.4,5.7,20,5.7,31.4s-2,21.6-6.1,31.4
								s-9.8,18-17.1,24.9s-15.9,12.7-26.1,16.7c-10.2,4.1-21.2,6.1-33.1,6.1h-44.5L783.6,572.1L783.6,572.1z M813,599v103.7h11.4
								c8.6,0,16.3-1.2,23.3-4.1c6.9-2.4,12.7-6.1,17.6-11s8.6-10.2,11.4-16.3c2.9-6.1,4.1-13.1,4.1-20.4c0-7.8-1.2-14.7-3.3-20.8
								c-2.4-6.1-5.7-11.8-10.6-16.3c-4.9-4.5-10.6-8.2-18-10.6c-7.3-2.4-15.9-3.7-25.7-3.7H813V599z M980.8,730.1
								c-8.2,0-15.9-1.2-22.9-3.7c-6.9-2.4-13.1-6.1-18-10.6c-5.3-4.9-9-10.6-11.8-17.6c-2.9-6.9-4.1-15.1-4.1-24.1v-102h29.4v103.7
								c0,3.7,0.8,7.3,2,10.6s3.3,6.1,5.7,8.6s5.3,4.5,8.6,5.7s6.9,2,11,2s7.3-0.8,11-2c3.3-1.6,6.1-3.3,8.6-5.7s4.5-5.3,6.1-8.6
								s2-6.9,2-10.6V572.1h29.4v102.1c0,9-1.6,17.1-4.5,24.1c-2.9,6.9-6.9,12.7-11.8,17.6c-4.9,4.5-11,8.2-18,10.6
								C996.3,728.9,989,730.1,980.8,730.1z M1108.6,730.1c-14.3,0-26.1-2.9-36.3-8.2c-9.8-5.3-18.4-12.2-25.7-20.4l26.9-20
								c4.1,6.5,9,11.8,15.1,15.1c5.7,3.7,12.7,5.3,19.6,5.3c7.8,0,13.9-2,18-6.1s6.1-9,6.1-14.3c0-3.3-0.8-6.1-2.9-8.2
								c-2-2-4.5-4.1-7.3-5.7c-2.9-1.6-6.5-3.3-10.6-4.5s-8.2-2.4-12.2-3.7c-5.3-1.6-10.6-3.7-15.9-5.3c-5.3-2-10.2-4.5-14.3-7.8
								c-4.1-3.3-7.8-7.3-10.2-12.2c-2.9-4.9-4.1-11-4.1-18.4c0-6.1,1.2-11.8,4.1-17.1c2.4-5.3,6.1-9.8,11-13.9
								c4.5-4.1,10.2-6.9,16.7-9.4c6.5-2,13.5-3.3,20.8-3.3c6.5,0,12.2,0.4,17.1,1.6c5.3,1.2,9.8,2.9,13.9,4.9s8.2,4.5,11.8,7.3
								c3.7,2.9,6.9,5.7,10.2,9.4l-24.1,18.8c-6.9-10.6-16.3-15.5-28.6-15.5c-7.3,0-12.7,1.6-16.3,4.9c-3.7,3.3-5.7,7.3-5.7,12.2
								c0,3.3,0.8,5.7,2.4,7.8c1.6,2,4.1,4.1,6.9,5.7c2.9,1.6,6.5,2.9,10.2,4.5c4.1,1.2,8.2,2.4,12.2,4.1c5.3,1.6,10.6,3.7,15.9,5.7
								s10.2,4.9,14.7,8.6c4.5,3.7,8.2,7.8,10.6,12.7c2.9,4.9,4.1,11,4.1,18.8c0,6.1-1.2,11.8-3.7,17.6c-2.4,5.7-6.1,11-10.6,15.1
								c-4.5,4.5-10.2,8.2-17.1,10.6C1125.3,728.9,1117.6,730.1,1108.6,730.1z M1210.7,600.3h-42.1v-28.2h113.9v28.2H1240v129.8
								h-29.4L1210.7,600.3L1210.7,600.3z M1319.7,572.1h29.8l56.3,158h-30.6l-9.8-28.2h-61.2l-9.8,28.2h-30.6L1319.7,572.1z
								 M1314,673.8h41.6l-20.8-60L1314,673.8z M1418.1,572.1h33.5l68.6,107.8V572.1h29.4v158h-31.4L1447.9,619v111.1h-29.4v-158
								H1418.1z"/>
							<path class="st1" d="M477.8,828.1c-4.5,0-9-0.8-12.7-2.4s-6.9-3.7-9.8-6.5c-2.9-2.9-4.9-5.7-6.1-9.4c-1.6-3.7-2-7.8-2-11.8
								c0-4.5,0.8-8.6,2.4-12.2c1.6-3.7,3.7-6.9,6.5-9.4c2.9-2.9,6.1-4.9,9.8-6.1c3.7-1.6,7.8-2.4,12.2-2.4c2.9,0,5.7,0.4,8.2,1.2
								s4.9,1.6,7.3,2.9c2.4,1.2,4.5,2.9,6.1,4.9c2,2,3.3,4.1,4.9,6.1l-9.8,6.1c-1.6-3.3-4.1-5.7-6.5-7.3c-2.9-1.6-6.1-2.9-9.8-2.9
								c-2.9,0-5.3,0.4-7.8,1.6c-2.4,0.8-4.5,2.4-6.1,4.1c-1.6,1.6-3.3,3.7-4.1,6.1c-0.8,2.4-1.6,4.9-1.6,7.3s0.4,5.3,1.6,7.3
								c0.8,2.4,2.4,4.5,4.1,6.1s3.7,3.3,6.1,4.1c2.4,0.8,4.9,1.6,7.8,1.6c4.1,0,7.8-0.8,10.6-2.9s5.3-4.5,6.5-7.8l10.2,4.9
								c-1.2,2.4-2.9,4.9-4.9,6.9s-4.1,3.7-6.5,5.3s-4.9,2.4-7.8,3.3C483.5,827.7,480.6,828.1,477.8,828.1z M592.5,828.1
								c-4.5,0-8.2-0.8-11.8-2.4c-3.7-1.6-6.9-3.7-9.8-6.5c-2.9-2.9-4.9-5.7-6.5-9.4c-1.6-3.7-2.4-7.8-2.4-11.8
								c0-4.1,0.8-8.2,2.4-11.8c1.6-3.7,3.7-6.9,6.5-9.4c2.9-2.9,6.1-4.9,9.8-6.5s7.8-2.4,11.8-2.4c4.1,0,8.2,0.8,11.8,2.4
								c3.7,1.6,6.9,3.7,9.8,6.5c2.9,2.9,4.9,6.1,6.5,9.4c1.6,3.7,2.4,7.8,2.4,11.8c0,4.1-0.8,8.2-2.4,11.8s-3.7,6.9-6.5,9.4
								c-2.9,2.9-6.1,4.9-9.8,6.5C600.7,827.3,596.6,828.1,592.5,828.1z M592.5,817.1c2.9,0,5.3-0.4,7.8-1.6
								c2.4-0.8,4.5-2.4,6.1-4.1s3.3-3.7,4.1-6.1s1.6-4.9,1.6-7.3s-0.4-5.3-1.6-7.3c-0.8-2.4-2.4-4.5-4.1-6.1
								c-1.6-1.6-3.7-3.3-6.1-4.1c-2.4-0.8-4.9-1.6-7.8-1.6c-2.9,0-5.3,0.4-7.8,1.6c-2.4,0.8-4.5,2.4-6.1,4.1
								c-1.6,1.6-3.3,3.7-4.1,6.1s-1.6,4.9-1.6,7.3s0.4,5.3,1.6,7.3c0.8,2.4,2.4,4.5,4.1,6.1c1.6,1.6,3.7,3.3,6.1,4.1
								C587.2,816.7,589.6,817.1,592.5,817.1z M682.3,828.1v-60h19.2c3.7,0,6.9,0.4,9.4,1.6c2.9,0.8,5.3,2.4,6.9,4.5
								c2,2,3.3,4.1,4.5,6.5c0.8,2.4,1.6,5.3,1.6,8.6c0,3.7-0.8,6.9-2.4,10.2c-1.6,3.3-4.1,5.7-7.3,7.3l11.8,21.6h-12.7l-9.8-18.4
								h-10.2v18.4h-11V828.1z M700.7,799.5c2.4,0,4.1-0.4,5.7-0.8c1.6-0.4,2.9-1.2,3.7-2.4c0.8-0.8,1.6-2,2-3.7
								c0.4-1.2,0.8-2.9,0.8-4.1c0-3.3-0.8-5.7-2.9-7.3c-2-1.6-4.9-2.9-9.4-2.9h-6.9v21.2L700.7,799.5L700.7,799.5z M784.4,768.1
								h20.4c3.3,0,6.1,0.4,8.6,1.6c2.4,1.2,4.9,2.4,6.9,4.5c2,2,3.3,4.1,4.5,6.9c1.2,2.4,1.6,5.3,1.6,8.2c0,2.9-0.4,5.7-1.6,8.6
								c-1.2,2.4-2.4,4.9-4.5,6.9c-2,2-4.1,3.3-6.9,4.5c-2.9,1.2-5.7,1.6-8.6,1.6h-9.4V828h-11V768.1z M795.8,778.3v22h8.6
								c1.6,0,3.3-0.4,4.5-0.8s2.4-1.2,3.7-2.4c0.8-0.8,1.6-2,2.4-3.7c0.4-1.2,0.8-2.9,0.8-4.5s-0.4-2.9-0.8-4.5
								c-0.4-1.2-1.2-2.4-2.4-3.7c-0.8-0.8-2-1.6-3.7-2.4c-1.2-0.4-2.9-0.8-4.5-0.8h-8.6V778.3z M916.3,828.1
								c-4.5,0-8.2-0.8-11.8-2.4c-3.7-1.6-6.9-3.7-9.8-6.5c-2.9-2.9-4.9-5.7-6.5-9.4c-1.6-3.7-2.4-7.8-2.4-11.8
								c0-4.1,0.8-8.2,2.4-11.8c1.6-3.7,3.7-6.9,6.5-9.4c2.9-2.9,6.1-4.9,9.8-6.5s7.8-2.4,11.8-2.4c4.5,0,8.2,0.8,11.8,2.4
								c3.7,1.6,6.9,3.7,9.8,6.5c2.9,2.9,4.9,6.1,6.5,9.4c1.6,3.7,2.4,7.8,2.4,11.8c0,4.1-0.8,8.2-2.4,11.8
								c-1.6,3.7-3.7,6.9-6.5,9.4c-2.9,2.9-6.1,4.9-9.8,6.5C924.8,827.3,920.8,828.1,916.3,828.1z M916.3,817.1
								c2.9,0,5.3-0.4,7.8-1.6c2.4-0.8,4.5-2.4,6.1-4.1c1.6-1.6,3.3-3.7,4.1-6.1s1.6-4.9,1.6-7.3s-0.4-5.3-1.6-7.3
								c-0.8-2.4-2.4-4.5-4.1-6.1c-1.6-1.6-3.7-3.3-6.1-4.1c-2.4-0.8-4.9-1.6-7.8-1.6s-5.3,0.4-7.8,1.6c-2.4,0.8-4.5,2.4-6.1,4.1
								c-1.6,1.6-3.3,3.7-4.1,6.1s-1.6,4.9-1.6,7.3s0.4,5.3,1.6,7.3c0.8,2.4,2.4,4.5,4.1,6.1c1.6,1.6,3.7,3.3,6.1,4.1
								C911,816.7,913.4,817.1,916.3,817.1z M1006.5,828.1v-60h19.2c3.7,0,6.9,0.4,9.4,1.6c2.9,0.8,5.3,2.4,6.9,4.5
								c2,2,3.3,4.1,4.5,6.5c0.8,2.4,1.6,5.3,1.6,8.6c0,3.7-0.8,6.9-2.4,10.2s-4.1,5.7-7.3,7.3l11.8,21.6h-12.7l-9.8-18.4h-10.2
								v18.4h-11L1006.5,828.1L1006.5,828.1z M1024.5,799.5c2.4,0,4.1-0.4,5.7-0.8s2.9-1.2,3.7-2.4c0.8-0.8,1.6-2,2-3.7
								c0.4-1.2,0.8-2.9,0.8-4.1c0-3.3-0.8-5.7-2.9-7.3s-4.9-2.9-9.4-2.9h-6.9v21.2L1024.5,799.5L1024.5,799.5z M1127.8,768.1h11.4
								l21.6,60H1149l-3.7-10.6H1122l-3.7,10.6h-11.8L1127.8,768.1z M1125.3,806.9h15.9l-7.8-22.9L1125.3,806.9z M1223.3,778.7
								h-15.9v-10.6h43.3v10.6h-16.3v49.4h-11L1223.3,778.7L1223.3,778.7z M1310.7,768.1h11v60h-11V768.1z M1412.4,828.1
								c-4.5,0-8.2-0.8-11.8-2.4c-3.7-1.6-6.9-3.7-9.8-6.5c-2.9-2.9-4.9-5.7-6.5-9.4c-1.6-3.7-2.4-7.8-2.4-11.8
								c0-4.1,0.8-8.2,2.4-11.8c1.6-3.7,3.7-6.9,6.5-9.4c2.9-2.9,6.1-4.9,9.8-6.5c3.7-1.6,7.8-2.4,11.8-2.4c4.5,0,8.2,0.8,11.8,2.4
								c3.7,1.6,6.9,3.7,9.8,6.5c2.9,2.9,4.9,6.1,6.5,9.4c1.6,3.7,2.4,7.8,2.4,11.8c0,4.1-0.8,8.2-2.4,11.8s-3.7,6.9-6.5,9.4
								c-2.9,2.9-6.1,4.9-9.8,6.5C1420.5,827.3,1416.4,828.1,1412.4,828.1z M1412.4,817.1c2.9,0,5.3-0.4,7.8-1.6
								c2.4-0.8,4.5-2.4,6.1-4.1c1.6-1.6,3.3-3.7,4.1-6.1c0.8-2.4,1.6-4.9,1.6-7.3s-0.4-5.3-1.6-7.3c-0.8-2.4-2.4-4.5-4.1-6.1
								c-1.6-1.6-3.7-3.3-6.1-4.1c-2.4-0.8-4.9-1.6-7.8-1.6s-5.3,0.4-7.8,1.6c-2.4,0.8-4.5,2.4-6.1,4.1c-1.6,1.6-3.3,3.7-4.1,6.1
								c-0.8,2.4-1.6,4.9-1.6,7.3s0.4,5.3,1.6,7.3c0.8,2.4,2.4,4.5,4.1,6.1s3.7,3.3,6.1,4.1C1407.1,816.7,1409.5,817.1,1412.4,817.1
								z M1502.2,768.1h12.7l26.1,40.8v-40.8h11v60h-11.8l-26.9-42.5v42.5h-11L1502.2,768.1L1502.2,768.1z"/>
						</g>
					</g>
				</g>
			</g>
		</g>
	</g>
</g>
</svg>
