<?xml version="1.0" encoding="utf-8"?>
<!-- Generator: Adobe Illustrator 23.0.1, SVG Export Plug-In . SVG Version: 6.00 Build 0)  -->
<svg version="1.1" id="Layer_1" xmlns="http://www.w3.org/2000/svg" xmlns:xlink="http://www.w3.org/1999/xlink" x="0px" y="0px"
	 viewBox="0 0 512 512" style="enable-background:new 0 0 512 512;" xml:space="preserve">
<style type="text/css">
	.st0{fill:#6C757D;}
</style>
<g>
	<g>
		<path class="st0" d="M123.7,130.1c-17.1-17.1-89.6-21.3-113.1-23.5c-2.1,0-4.3,0-6.4,2.1s-4.3,6.4-4.3,8.5v192
			c0,6.4,4.3,10.7,10.7,10.7h64c4.3,0,8.5-2.1,10.7-6.4c0-6.4,38.4-119.5,42.7-174.9C128,136.5,128,132.3,123.7,130.1z"/>
	</g>
</g>
<g>
	<g>
		<path class="st0" d="M352,181.3c-21.3-6.4-40.5-14.9-57.6-21.3c-38.4-17.1-55.5-8.5-89.6,25.6c-14.9,14.9-25.6,36.3-23.5,44.8
			c0,2.1,0,2.1,4.3,4.3c10.7,4.3,25.6,6.4,40.5-17.1c2.1-2.1,4.3-4.3,8.5-4.3c6.4,0,8.5-2.1,14.9-4.3c4.3-2.1,8.5-4.3,14.9-6.4
			c2.1,0,2.1,0,4.3,0c2.1,0,6.4,2.1,8.5,2.1c10.7,10.7,29.9,25.6,49.1,42.7c29.9,23.5,59.7,49.1,74.7,68.3h2.1
			C388.3,273.1,362.7,200.5,352,181.3z"/>
	</g>
</g>
<g>
	<g>
		<path class="st0" d="M501.3,128c-83.2,0-130.1,21.3-132.3,21.3c-2.1,2.1-4.3,4.3-6.4,6.4c0,2.1,0,6.4,2.1,8.5
			c12.8,21.3,55.5,138.7,61.9,168.5c2.1,4.3,6.4,8.5,10.7,8.5h64c6.4,0,10.7-4.3,10.7-10.7v-192C512,132.3,507.7,128,501.3,128z"/>
	</g>
</g>
<g>
	<g>
		<path class="st0" d="M386.1,337.1c-8.5-19.2-44.8-46.9-76.8-72.5c-17.1-14.9-34.1-27.7-46.9-38.4c-2.1,2.1-6.4,2.1-6.4,4.3
			c-6.4,2.1-8.5,4.3-17.1,4.3c-17.1,21.3-38.4,29.9-61.9,21.3c-10.7-2.1-17.1-10.7-19.2-19.2c-4.3-21.3,14.9-51.2,29.9-66.1H145
			c-8.5,42.7-23.5,98.1-34.1,128c8.5,8.5,17.1,19.2,23.5,23.5c40.5,34.1,87.5,68.3,96,74.7c6.4,4.3,19.2,8.5,25.6,8.5
			c2.1,0,4.3,0,6.4,0l-34.1-34.1c-4.3-4.3-4.3-10.7,0-14.9s10.7-4.3,14.9,0l42.7,42.7c4.3,4.3,8.5,2.1,12.8,2.1
			c6.4-2.1,8.5-6.4,10.7-12.8l-49.1-49.1c-4.3-4.3-4.3-10.7,0-14.9c4.3-4.2,10.7-4.3,14.9,0l53.3,53.3c2.1,2.1,10.7,2.1,17.1,0
			c2.1-2.1,6.4-4.3,8.5-8.5l-59.7-59.7c-4.3-4.3-4.3-10.7,0-14.9s10.7-4.3,14.9,0l61.9,61.9c4.3,2.1,8.5,0,12.8-2.1
			C386.1,352,390.4,345.6,386.1,337.1z"/>
	</g>
</g>
</svg>
