<?xml version="1.0" encoding="utf-8"?>
<!-- Generator: Adobe Illustrator 23.0.1, SVG Export Plug-In . SVG Version: 6.00 Build 0)  -->
<svg version="1.1" id="Layer_1" xmlns="http://www.w3.org/2000/svg" xmlns:xlink="http://www.w3.org/1999/xlink" x="0px" y="0px"
	 viewBox="0 0 512 512" style="enable-background:new 0 0 512 512;" xml:space="preserve">
<style type="text/css">
	.st0{fill-rule:evenodd;clip-rule:evenodd;fill:#FFC107;}
</style>
<path class="st0" d="M365,107c44.4,10.3,61.4,36.3,82.7,72H365V107z M105.6,182c8.7,0,15,4.2,15,14c0,8.3-6.7,15-15,15H15
	c-8.3,0-15,6.7-15,15s6.7,15,15,15h135c8.4,0,15.1,6.7,15.1,15c0,8.3-6.7,15-15,15H15c-8.3,0-15,6.7-15,15s6.7,15,15,15h33v45
	c0,8.3,6.7,15,15,15h30.2c5.4,26.5,28.8,46,56.3,46s51-19.5,56.3-46h152.3c5.4,26.5,28.8,46,56.3,46s51-19.5,56.3-46H497
	c8.3,0,15-6.7,15-15v-90c0-44-46.4-46.9-46.5-47H350c-8.3,0-15-6.7-15-15v-90H63c-8.3,0-15,6.7-15,15v33H30c-8.3,0-15,6.7-15,15
	s6.7,15,15,15H105.6z M433.9,330.1c10.7,10.7,10.7,28.2,0,38.9c-17.3,17.3-46.9,5-46.9-19.4C387,325.1,416.7,312.8,433.9,330.1z
	 M168.9,330.1c10.7,10.7,10.7,28.2,0,38.9c-17.3,17.3-46.9,5-46.9-19.4C122,325.1,151.7,312.8,168.9,330.1z"/>
</svg>
