<?xml version="1.0" encoding="utf-8"?>
<!-- Generator: Adobe Illustrator 23.0.1, SVG Export Plug-In . SVG Version: 6.00 Build 0)  -->
<svg version="1.1" id="Layer_1" xmlns="http://www.w3.org/2000/svg" xmlns:xlink="http://www.w3.org/1999/xlink" x="0px" y="0px"
	 viewBox="0 0 512 512" style="enable-background:new 0 0 512 512;" xml:space="preserve">
<style type="text/css">
	.st0{fill:#0D6EFD;}
</style>
<path class="st0" d="M234.7,293.3c0-8.8-7.2-16-16-16h-80v64c0,11.8-9.6,21.3-21.3,21.3S96,353.1,96,341.3v-64H16
	c-8.8,0-16,7.2-16,16V496c0,8.8,7.2,16,16,16h202.7c8.8,0,16-7.2,16-16V293.3z"/>
<path class="st0" d="M512,293.3c0-8.8-7.2-16-16-16h-80v64c0,11.8-9.6,21.3-21.3,21.3s-21.3-9.6-21.3-21.3v-64h-80
	c-8.8,0-16,7.2-16,16V496c0,8.8,7.2,16,16,16H496c8.8,0,16-7.2,16-16V293.3z"/>
<path class="st0" d="M373.3,16c0-8.8-7.2-16-16-16h-80v64c0,11.8-9.6,21.3-21.3,21.3s-21.3-9.6-21.3-21.3V0h-80c-8.8,0-16,7.2-16,16
	v202.7c0,8.8,7.2,16,16,16h202.7c8.8,0,16-7.2,16-16V16z"/>
</svg>
