<?xml version="1.0" encoding="utf-8"?>
<!-- Generator: Adobe Illustrator 23.0.1, SVG Export Plug-In . SVG Version: 6.00 Build 0)  -->
<svg version="1.1" id="Layer_1" xmlns="http://www.w3.org/2000/svg" xmlns:xlink="http://www.w3.org/1999/xlink" x="0px" y="0px"
	 viewBox="0 0 512 512" style="enable-background:new 0 0 512 512;" xml:space="preserve">
<style type="text/css">
	.st0{fill:#0D6EFD;}
</style>
<g>
	<g>
		<path class="st0" d="M430.6,0H218.1v144.1c0,9.5-7.7,17.3-17.3,17.3H56.7v325.9c0,13.6,11,24.7,24.7,24.7h349.2
			c13.6,0,24.7-11,24.7-24.7V24.7C455.3,11,444.2,0,430.6,0z M333.3,409.8H192.7c-9.5,0-17.3-7.7-17.3-17.3s7.7-17.3,17.3-17.3
			h140.6c9.5,0,17.3,7.7,17.3,17.3S342.9,409.8,333.3,409.8z M333.3,328.5H192.7c-9.5,0-17.3-7.7-17.3-17.3
			c0-9.5,7.7-17.3,17.3-17.3h140.6c9.5,0,17.3,7.7,17.3,17.3C350.6,320.8,342.9,328.5,333.3,328.5z M333.3,247.2H192.7
			c-9.5,0-17.3-7.7-17.3-17.3s7.7-17.3,17.3-17.3h140.6c9.5,0,17.3,7.7,17.3,17.3S342.9,247.2,333.3,247.2z"/>
	</g>
</g>
<g>
	<g>
		<path class="st0" d="M183.4,0c-6.5,0-12.8,2.6-17.4,7.2l-102,102c-4.6,4.6-7.2,10.9-7.2,17.4v0.2h126.9V0H183.4z"/>
	</g>
</g>
</svg>
