<?xml version="1.0" encoding="utf-8"?>
<!-- Generator: Adobe Illustrator 23.0.1, SVG Export Plug-In . SVG Version: 6.00 Build 0)  -->
<svg version="1.1" id="Capa_1" xmlns="http://www.w3.org/2000/svg" xmlns:xlink="http://www.w3.org/1999/xlink" x="0px" y="0px"
	 viewBox="0 0 890.5 890.5" style="enable-background:new 0 0 890.5 890.5;" xml:space="preserve">
<style type="text/css">
	.st0{fill:#198754;}
</style>
<g>
	<g>
		<path class="st0" d="M208.1,180.6l355-96.9l-18.8-38C532,21,502,10.8,477.3,23.1L159.5,180.6H208.1z"/>
		<path class="st0" d="M673.3,86.5c-4.4,0-8.8,0.6-13.2,1.8l-83.4,22.8L322,180.6h289.1h126l-15.6-57.2
			C715.5,101.1,695.3,86.5,673.3,86.5z"/>
		<path class="st0" d="M789.2,215.6h-11.4h-15.5h-15.5H628.5H193.8h-57h-48h-8.9H50.1c-15.8,0-29.9,7.3-39.1,18.8
			c-4.2,5.3-7.4,11.4-9.2,18.1c-1.1,4.2-1.8,8.6-1.8,13.1v6v57v494.1c0,27.6,22.4,50,50,50h739.1c27.6,0,50-22.4,50-50V683.2H542.4
			c-46.9,0-85-38.1-85-85v-45.8v-15.5v-15.5V487c0-23,9.2-43.9,24.1-59.2c13.2-13.6,30.9-22.8,50.7-25.1c3.3-0.4,6.7-0.6,10.1-0.6
			h255.2H813h15.5h10.6V265.6C839.2,238,816.8,215.6,789.2,215.6z"/>
		<path class="st0" d="M874.2,449.9c-5-4.6-10.9-8.1-17.5-10.4c-5.1-1.7-10.5-2.7-16.2-2.7h-1.3h-1h-15.5h-55.9H542.4
			c-27.6,0-50,22.4-50,50v24.9v15.5v15.5v55.4c0,27.6,22.4,50,50,50h296.8h1.3c5.7,0,11.1-1,16.2-2.7c6.6-2.2,12.5-5.8,17.5-10.4
			c10-9.1,16.3-22.3,16.3-36.9V486.8C890.5,472.2,884.2,459,874.2,449.9z M646.8,552.4c0,13.8-11.2,25-25,25h-16.6
			c-13.8,0-25-11.2-25-25v-16.6c0-8,3.7-15.1,9.6-19.6c4.3-3.3,9.6-5.4,15.4-5.4h4.2h12.4c13.8,0,25,11.2,25,25L646.8,552.4
			L646.8,552.4z"/>
	</g>
</g>
</svg>
