<?xml version="1.0" encoding="utf-8"?>
<!-- Generator: Adobe Illustrator 23.0.1, SVG Export Plug-In . SVG Version: 6.00 Build 0)  -->
<svg version="1.1" id="Capa_1" xmlns="http://www.w3.org/2000/svg" xmlns:xlink="http://www.w3.org/1999/xlink" x="0px" y="0px"
	 viewBox="0 0 512 512" style="enable-background:new 0 0 512 512;" xml:space="preserve">
<style type="text/css">
	.st0{fill:#198754;}
</style>
<g>
	<g>
		<g>
			<path class="st0" d="M403.5,14.4C398.4,5.5,388.8,0,378.6,0H271.5v126.6h196.9L403.5,14.4z"/>
			<path class="st0" d="M241.5,0H133.4c-10.3,0-19.8,5.5-24.9,14.4L43.8,126.6h197.7V0L241.5,0z"/>
			<path class="st0" d="M33.1,156.6v320.1c0,19.5,15.8,35.3,35.3,35.3h375.3c19.5,0,35.3-15.8,35.3-35.3V156.6H33.1z M324.1,291.2
				l-77.6,77.6c-2.9,2.9-6.8,4.4-10.6,4.4s-7.7-1.5-10.6-4.4l-36.4-36.4c-5.9-5.9-5.9-15.4,0-21.2c5.9-5.9,15.4-5.9,21.2,0
				l25.8,25.8l67-67c5.9-5.9,15.4-5.9,21.2,0C330,275.9,330,285.4,324.1,291.2z"/>
		</g>
	</g>
</g>
</svg>
