<?xml version="1.0" encoding="utf-8"?>
<!-- Generator: Adobe Illustrator 23.0.1, SVG Export Plug-In . SVG Version: 6.00 Build 0)  -->
<svg version="1.1" id="Capa_1" xmlns="http://www.w3.org/2000/svg" xmlns:xlink="http://www.w3.org/1999/xlink" x="0px" y="0px"
	 viewBox="0 0 512 512" style="enable-background:new 0 0 512 512;" xml:space="preserve">
<style type="text/css">
	.st0{fill:#DC3545;}
</style>
<g>
	<path class="st0" d="M151,256c0,57.9,47.1,105,105,105s105-47.1,105-105c0-35-17.1-66.8-45-86.2V256c0,5-2.5,9.7-6.7,12.5l-45,30
		c-5,3.4-11.6,3.4-16.6,0l-45-30c-4.2-2.8-6.7-7.5-6.7-12.5v-86.2C168.1,189.2,151,221,151,256L151,256z"/>
	<path class="st0" d="M286,512V387.6c-9.7,2.2-19.7,3.4-30,3.4s-20.3-1.2-30-3.4V512H286z"/>
	<path class="st0" d="M500.6,196.4l-47-11.5c-2.2-6.1-4.8-12.2-7.7-18.2l24.5-40.8c3.5-5.9,2.6-13.5-2.3-18.3l-63.6-63.6
		c-4.9-4.9-12.4-5.8-18.3-2.3l-40.8,24.5c-6.1-2.9-12.2-5.4-18.2-7.7l-11.5-47C313.9,4.7,307.9,0,301,0h-90
		c-6.9,0-12.9,4.7-14.6,11.4l-11.5,47c-6.1,2.2-12.2,4.8-18.2,7.7l-40.8-24.5c-5.9-3.5-13.5-2.6-18.3,2.3l-63.6,63.6
		c-4.9,4.9-5.8,12.4-2.3,18.3l24.5,40.8c-2.9,6.1-5.4,12.2-7.7,18.2l-47,11.5C4.7,198.1,0,204.1,0,211v90c0,6.9,4.7,12.9,11.4,14.6
		l47,11.5c2.2,6.1,4.8,12.2,7.7,18.2l-24.5,40.8c-3.5,5.9-2.6,13.5,2.3,18.3l63.6,63.6c4.9,4.9,12.4,5.8,18.3,2.3l40.8-24.5
		c6.1,2.9,12.2,5.4,18.2,7.7l11.1,45.3V376.9c-44.4-22.1-75-68-75-120.9c0-27.4,8.2-53.7,23.7-76.3c15.1-22,36.1-38.9,60.7-48.9
		c4.6-1.9,9.9-1.3,14,1.5c4.1,2.8,6.6,7.5,6.6,12.4V248l30,20l30-20V144.8c0-5,2.5-9.7,6.6-12.4c4.1-2.8,9.4-3.3,14-1.5
		c24.6,10,45.6,26.9,60.7,48.9c15.5,22.5,23.7,48.9,23.7,76.3c0,52.9-30.6,98.8-75,120.9v121.9l11.1-45.3c6.1-2.2,12.2-4.8,18.2-7.7
		l40.8,24.5c5.9,3.5,13.5,2.6,18.3-2.3l63.6-63.6c4.9-4.9,5.8-12.4,2.3-18.3l-24.5-40.8c2.9-6.1,5.4-12.2,7.7-18.2l47-11.5
		c6.7-1.6,11.4-7.7,11.4-14.6v-90C512,204.1,507.3,198.1,500.6,196.4L500.6,196.4z"/>
</g>
</svg>
