<?xml version="1.0" encoding="utf-8"?>
<!-- Generator: Adobe Illustrator 23.0.1, SVG Export Plug-In . SVG Version: 6.00 Build 0)  -->
<svg version="1.1" id="Layer_1" xmlns="http://www.w3.org/2000/svg" xmlns:xlink="http://www.w3.org/1999/xlink" x="0px" y="0px"
	 viewBox="0 0 512 512" style="enable-background:new 0 0 512 512;" xml:space="preserve">
<style type="text/css">
	.st0{fill:#FFC107;}
</style>
<g>
	<path class="st0" d="M272.5,0v98.6L388,168.4l82.4-45.8L272.5,0z"/>
	<path class="st0" d="M371.2,214.5L272.5,266v109l98.7-59.6V214.5z"/>
	<path class="st0" d="M404.1,197.1v117.8l82.3,45.7V151.4L404.1,197.1z"/>
	<path class="st0" d="M255.8,237.5l98.2-51.2L256,127.1l-100.1,60.4L255.8,237.5z"/>
	<path class="st0" d="M239.5,266.2l-98.7-49.4v98.5l98.7,59.6V266.2z"/>
	<path class="st0" d="M239.5,413.4L124,343.6l-82.4,45.8L239.5,512V413.4z"/>
	<path class="st0" d="M388,343.6l-115.5,69.8V512l197.9-122.6L388,343.6z"/>
	<path class="st0" d="M121.9,169.7l117.6-71V0L41.9,122.5L121.9,169.7z"/>
	<path class="st0" d="M107.9,314.9V199.6l-82.3-48.5v209.5L107.9,314.9z"/>
</g>
</svg>
